<svg width="136" height="136" viewBox="0 0 136 136" fill="none" xmlns="http://www.w3.org/2000/svg">
<rect width="135" height="135.009" transform="translate(0.21875 0.607178)" fill="white"/>
<path d="M126.042 101.073C121.778 102.157 119.142 101.12 116.776 97.5677L99.9504 74.2892L97.5185 71.0663L77.8696 97.6446C75.6245 100.842 73.2696 102.234 69.0798 101.102L94.2407 67.327L70.8157 36.8189C74.8444 36.0352 77.6279 36.4344 80.1 40.0419L97.5515 63.6096L115.131 40.17C117.384 36.9727 119.804 35.7568 123.848 36.9361L114.765 48.9782L102.459 65.0013C100.994 66.8325 101.196 68.0851 102.543 69.854L126.042 101.073ZM8.87305 66.763L10.9313 56.64C16.5349 36.6065 39.4983 28.2818 55.3347 40.6608C64.5896 47.9417 66.8896 58.2405 66.4318 69.7771H14.2641C13.4804 90.5431 28.4268 103.076 47.4824 96.6814C54.1663 94.4363 58.1034 89.2027 60.0738 82.6542C61.0737 79.3727 62.7291 78.86 65.8129 79.7975C64.238 87.9867 60.6855 94.8282 53.1775 99.1095C41.9594 105.519 25.9473 103.446 17.5237 94.5388C12.5062 89.3711 10.4332 82.8227 9.50299 75.8201C9.35649 74.6628 9.0635 73.5604 8.84375 72.4507C8.86328 70.556 8.87305 68.6613 8.87305 66.7666V66.763ZM14.3594 65.3712H61.5022C61.1945 50.3553 51.8444 39.6903 39.0661 39.5987C25.039 39.4888 14.9673 49.9011 14.3594 65.3712Z" fill="black"/>
</svg>
