<svg width="136" height="136" viewBox="0 0 136 136" fill="none" xmlns="http://www.w3.org/2000/svg">
<rect width="135" height="135.009" transform="translate(0.21875 0.607178)" fill="white"/>
<path fill-rule="evenodd" clip-rule="evenodd" d="M76.9301 15.7312C76.159 15.7312 75.443 15.8964 74.782 16.1168C76.1865 17.0531 76.9576 18.2924 77.3432 19.6969C77.3708 19.8896 77.4258 20.0273 77.4534 20.2201C77.481 20.3853 77.5084 20.5506 77.5084 20.7158C77.6186 23.1393 76.875 23.4422 76.3518 24.8743C75.5531 26.7194 75.7734 28.7022 76.7373 30.2995C76.8199 30.4923 76.9301 30.7126 77.0678 30.9054C76.0213 23.9379 81.8321 22.8914 82.9061 20.7158C82.9887 18.8156 81.419 17.5488 80.1797 16.6675C78.9955 15.9515 77.9215 15.7312 76.9301 15.7312ZM85.6876 17.3009C85.5774 17.9343 85.66 17.7691 85.6326 18.0996C85.605 18.3199 85.605 18.5953 85.5775 18.8156C85.5225 19.0359 85.4673 19.2562 85.3847 19.4766C85.3297 19.6969 85.247 19.9172 85.1644 20.1375C85.0542 20.3578 84.9717 20.5506 84.8615 20.7709C84.7789 20.8811 84.7238 20.9912 84.6412 21.1014C84.5862 21.184 84.531 21.2666 84.476 21.3492C84.3383 21.542 84.2006 21.7348 84.0629 21.9C83.8976 22.0653 83.7599 22.258 83.5671 22.3957V22.4233C83.4019 22.561 83.2367 22.7262 83.0439 22.8639C82.4656 23.3046 81.8046 23.635 81.1988 24.0481C81.006 24.1858 80.8132 24.296 80.648 24.4612C80.4552 24.5989 80.29 24.7366 80.1247 24.9018C79.932 25.0671 79.7943 25.2323 79.629 25.4251C79.4913 25.5903 79.3261 25.7831 79.2159 25.9759C79.0782 26.1686 78.9405 26.3614 78.8304 26.5542C78.7202 26.7745 78.6376 26.9673 78.5275 27.1876C78.4448 27.4079 78.3622 27.6007 78.3071 27.821C78.2245 28.0689 78.1694 28.2892 78.1144 28.5095C78.0868 28.6197 78.0868 28.7573 78.0593 28.8675C78.0317 28.9777 78.0317 29.0878 78.0043 29.198C78.0043 29.4183 77.9767 29.6661 77.9767 29.8865C77.9767 30.0517 77.9767 30.2169 78.0043 30.3822C78.0043 30.6025 78.0319 30.8228 78.0869 31.0706C78.1145 31.291 78.1695 31.5113 78.2246 31.7316C78.3072 31.9519 78.3623 32.1722 78.4449 32.3925C78.5 32.5302 78.5826 32.6679 78.6377 32.7781L72.3037 30.3271C71.2296 30.0242 70.1831 29.7488 69.1091 29.5009C68.5308 29.3632 67.9524 29.2255 67.3741 29.0878C65.7217 28.7573 64.0419 28.5095 62.362 28.3443C62.3069 28.3443 62.2793 28.3167 62.2243 28.3167C60.5719 28.1515 58.9471 28.0688 57.2947 28.0688C56.083 28.0688 54.8713 28.1239 53.6871 28.2065C52.0072 28.3167 50.3273 28.537 48.6474 28.8124C48.2343 28.8674 47.8212 28.9501 47.4081 29.0327C46.5544 29.1979 45.7282 29.3907 44.9296 29.5835C44.5165 29.6937 44.1034 29.8038 43.6903 29.914C43.2772 30.0792 42.8916 30.272 42.5061 30.4372C42.2032 30.5749 41.9002 30.7126 41.5973 30.8503C41.5423 30.8779 41.4871 30.8779 41.4596 30.9053C41.1842 31.043 40.9363 31.1532 40.6885 31.2909C40.6059 31.3185 40.5508 31.3459 40.4957 31.3735C40.1928 31.5112 39.8899 31.6764 39.642 31.8141C39.4492 31.8968 39.2565 32.0069 39.0912 32.0895C39.0086 32.1446 38.8984 32.1997 38.8434 32.2272C38.5955 32.3649 38.3477 32.5026 38.1273 32.6403C37.8795 32.778 37.6592 32.9157 37.4664 33.0534C37.2736 33.1911 37.0808 33.3013 36.9156 33.4389C36.888 33.4665 36.8606 33.4665 36.833 33.494C36.6677 33.6042 36.475 33.7418 36.3097 33.8795C36.3097 33.8795 36.2822 33.9071 36.2547 33.9346C36.117 34.0448 35.9793 34.1549 35.8416 34.265C35.7866 34.2926 35.7314 34.3477 35.6764 34.3752C35.5387 34.4855 35.401 34.6231 35.2633 34.7333C35.2357 34.7883 35.1807 34.8159 35.1531 34.8435C34.9879 35.0087 34.8226 35.1464 34.6574 35.3116C34.6298 35.3116 34.6298 35.3392 34.6023 35.3667C34.4371 35.5044 34.2719 35.6696 34.1066 35.8348C34.0791 35.8624 34.0791 35.8899 34.0516 35.8899C33.9139 36.0276 33.7762 36.1653 33.6385 36.3305C33.5835 36.3855 33.5008 36.4407 33.4457 36.4957C33.308 36.661 33.1428 36.8262 32.9776 36.9914C32.95 37.0465 32.895 37.0741 32.8674 37.1291C32.6471 37.3495 32.4543 37.5698 32.234 37.7901C32.2064 37.8177 32.1789 37.8451 32.1513 37.8727C31.7107 38.3409 31.2425 38.809 30.7468 39.2221C30.2511 39.6628 29.7279 40.0758 29.2046 40.4339C28.6538 40.8194 28.1306 41.1499 27.5523 41.4804C27.0015 41.7833 26.4232 42.0587 25.8173 42.3065C25.239 42.5544 24.6331 42.7747 24.0272 42.9675C22.8706 43.2153 21.6864 43.6835 20.6674 43.7661C20.4471 43.7661 20.1993 43.8212 19.979 43.8487C19.7311 43.9038 19.5108 43.9589 19.2905 44.014C19.0702 44.0966 18.8498 44.1792 18.6295 44.2618C18.4092 44.3444 18.1889 44.4546 17.9686 44.5648C17.7758 44.7025 17.5555 44.8126 17.3627 44.9503C17.17 45.088 16.9772 45.2532 16.8119 45.4185C16.6192 45.5562 16.4264 45.749 16.2612 45.9142C16.0959 46.107 15.9307 46.2722 15.793 46.465C15.6553 46.6853 15.4901 46.8781 15.3799 47.0984C15.2422 47.2912 15.1045 47.5115 14.9943 47.7318C14.8841 47.9796 14.774 48.1999 14.6914 48.4478C14.6088 48.6681 14.5262 48.916 14.4436 49.1638C14.3885 49.3841 14.3334 49.6045 14.3059 49.8248C14.3059 49.8524 14.2783 49.8798 14.2783 49.9074C14.2232 50.1553 14.2232 50.4857 14.1957 50.651C14.1681 50.8437 14.1406 51.009 14.1406 51.2017C14.1406 51.312 14.1406 51.4496 14.1682 51.5598C14.1958 51.7525 14.2232 51.9178 14.2784 52.083C14.3334 52.2482 14.3886 52.4135 14.4712 52.5787V52.6063C14.5538 52.7715 14.664 52.9368 14.7741 53.102C14.8843 53.2672 14.9944 53.4325 15.1321 53.5977C15.2698 53.7354 15.4351 53.9006 15.6003 54.0383C15.7655 54.2036 15.9308 54.3413 16.1235 54.479C16.7845 55.0573 16.9497 55.2501 17.8034 55.6907C17.9411 55.7733 18.0788 55.8284 18.2441 55.911C18.2717 55.911 18.2991 55.9386 18.3267 55.9386C18.3267 55.9936 18.3267 56.0212 18.3543 56.0763C18.3819 56.2966 18.4369 56.5169 18.492 56.7372C18.547 56.9851 18.6297 57.2054 18.7123 57.3982C18.7949 57.5634 18.85 57.7287 18.9326 57.8939C18.9602 57.9489 18.9876 58.0041 19.0152 58.0316C19.1254 58.2519 19.2355 58.4447 19.3457 58.6375C19.4834 58.8302 19.6211 59.023 19.7588 59.2158C19.8965 59.381 20.0617 59.5738 20.227 59.739C20.3922 59.9043 20.5574 60.042 20.7502 60.2072C20.7502 60.2072 20.7778 60.2348 20.8052 60.2348C20.9705 60.3725 21.1357 60.5102 21.301 60.6204C21.4937 60.7581 21.6865 60.8682 21.9068 60.9784C22.0996 61.0886 22.3199 61.1987 22.5402 61.2813C22.7055 61.3639 22.8982 61.419 23.091 61.4741C23.1186 61.5017 23.146 61.5017 23.2012 61.5291C23.3114 61.5567 23.449 61.5842 23.5592 61.6117C23.4766 63.0989 23.449 64.5034 23.6694 64.9991C23.9173 65.5499 25.129 63.87 26.3407 61.9422C26.1755 63.8424 26.0653 66.0731 26.3407 66.7341C26.6437 67.4225 28.296 65.2745 29.7281 62.9061C49.2534 58.3896 67.0714 71.8839 68.9441 90.9411C68.5861 87.9669 64.9233 86.3145 63.2434 86.7276C62.4173 88.7655 61.0127 91.3817 58.7545 93.0066C58.9473 91.189 58.8647 89.3163 58.4791 87.4987C57.8733 90.0323 56.6891 92.4007 55.0642 94.4386C52.448 94.6314 49.8318 93.3646 48.4548 91.4644C48.3446 91.3817 48.3171 91.2165 48.2345 91.1064C48.1519 90.9136 48.0692 90.7208 48.0142 90.528C47.9316 90.3353 47.8765 90.1425 47.8489 89.9497C47.8213 89.7569 47.8213 89.5642 47.8213 89.3438C47.8213 89.2061 47.8213 89.0684 47.8213 88.9308C47.8489 88.738 47.904 88.5452 47.959 88.3524C48.0141 88.1597 48.0692 87.9669 48.1518 87.7741C48.262 87.5813 48.3446 87.3886 48.4823 87.1958C48.9505 85.8739 48.9505 84.7999 48.0967 84.1665C47.9315 84.0563 47.7663 83.9737 47.5735 83.8911C47.4633 83.8635 47.3256 83.8084 47.2155 83.7809C47.1329 83.7533 47.0778 83.7258 46.9952 83.6982C46.8024 83.6432 46.6096 83.588 46.4168 83.5605C46.2241 83.5055 46.0313 83.4779 45.8385 83.4779C45.6457 83.4503 45.4254 83.4229 45.2327 83.4229C45.095 83.4229 44.9573 83.4505 44.8196 83.4505C44.5993 83.4505 44.4065 83.4781 44.2137 83.5331C44.0209 83.5607 43.8282 83.5881 43.6354 83.6433C43.4426 83.6983 43.2498 83.7535 43.057 83.8361C42.8643 83.9187 42.699 84.0013 42.5063 84.0839C42.341 84.1665 42.1758 84.2767 41.983 84.3593C35.5663 88.5453 39.3943 98.3493 43.7731 101.186C42.1207 101.489 40.4408 101.847 39.9726 102.205C39.9451 102.232 39.9176 102.26 39.9176 102.26C41.1018 102.976 42.3411 103.582 43.6354 104.105C45.3979 104.683 47.2706 105.207 48.0968 105.427V105.454C50.3826 105.923 52.6959 106.088 55.0367 105.95C67.2366 105.096 77.2334 95.8156 79.051 83.5882C79.106 83.8361 79.1612 84.0564 79.2162 84.3042C79.2989 84.7999 79.409 85.3232 79.4641 85.8464V85.874C79.5191 86.1219 79.5467 86.3697 79.5743 86.59V86.7002C79.6019 86.9481 79.6293 87.196 79.6293 87.4163C79.6569 87.7192 79.6844 88.0221 79.6844 88.3251V88.7657C79.6844 88.9034 79.7119 89.0686 79.7119 89.2063C79.7119 89.3716 79.6844 89.5368 79.6844 89.702V90.0876C79.6844 90.2804 79.6568 90.4456 79.6568 90.6384C79.6568 90.7486 79.6568 90.8587 79.6292 90.9964C79.6292 91.1892 79.6016 91.3819 79.6016 91.6023C79.574 91.6849 79.574 91.7675 79.574 91.8501C79.5464 92.0704 79.5189 92.2632 79.4914 92.4835C79.4914 92.5661 79.4914 92.6487 79.4638 92.7314C79.4362 93.0068 79.3812 93.2546 79.3536 93.53V93.5576V93.5852C79.2986 93.833 79.2434 94.1084 79.1884 94.3563V94.4389C79.1333 94.6868 79.0782 94.9346 79.0231 95.1825C79.0231 95.2101 78.9956 95.2651 78.9956 95.2927C78.9405 95.5405 78.8853 95.7884 78.8028 96.0362V96.1189C78.7202 96.3942 78.6375 96.6421 78.5825 96.8899C78.5549 96.9175 78.5549 96.945 78.5549 96.945C78.4723 97.2204 78.3897 97.4958 78.307 97.7712C78.1968 98.0466 78.1143 98.2944 78.0041 98.5698C77.8939 98.8452 77.8113 99.1206 77.7012 99.3684C77.591 99.6438 77.4809 99.8917 77.3707 100.167H77.3431C77.2329 100.415 77.1228 100.69 76.9851 100.938C76.9575 101.021 76.93 101.076 76.9024 101.131C76.8749 101.159 76.8749 101.186 76.8474 101.214C75.0574 104.821 72.4136 107.988 69.1089 110.467C68.8886 110.604 68.6682 110.77 68.4479 110.935C68.3929 110.99 68.3102 111.018 68.2551 111.073C68.0624 111.21 67.8696 111.348 67.6493 111.486L67.7319 111.651H67.7595C68.145 111.596 68.5306 111.541 68.9161 111.486H68.9437C69.6597 111.376 70.3757 111.238 71.0918 111.1C71.2845 111.073 71.5049 111.018 71.6976 110.962C71.8353 110.935 71.9455 110.907 72.0832 110.88C72.276 110.852 72.4687 110.797 72.6615 110.77C72.8267 110.715 72.992 110.687 73.1572 110.632C75.9112 109.971 78.5825 109.062 81.1436 107.988C76.7649 113.964 70.899 118.784 64.0417 121.951C67.2087 121.73 70.3757 121.207 73.4326 120.326C84.531 117.049 93.8668 109.585 99.4573 99.5336C98.3282 105.895 95.7945 111.954 92.0492 117.241C94.7205 115.479 97.1715 113.441 99.4022 111.128C105.571 104.683 109.619 96.5043 110.996 87.7193C111.933 92.0705 112.208 96.5594 111.795 100.993C131.678 73.2611 113.447 44.51 105.819 36.9367C105.791 36.8817 105.764 36.8541 105.764 36.799C105.736 36.8266 105.736 36.8266 105.736 36.8541C105.736 36.8265 105.736 36.8265 105.709 36.799C105.709 37.1295 105.681 37.46 105.654 37.7904C105.571 38.4239 105.488 39.0297 105.378 39.6356C105.241 40.2414 105.075 40.8473 104.91 41.4532C104.717 42.0315 104.497 42.6374 104.249 43.2157C104.001 43.7665 103.726 44.3448 103.423 44.8956C103.12 45.4188 102.79 45.9696 102.432 46.4653C102.073 46.9886 101.688 47.4843 101.302 47.9524C100.889 48.4482 100.449 48.8888 100.008 49.3294C99.7326 49.5773 99.4848 49.7976 99.2094 50.0179C98.9891 50.2107 98.7963 50.3759 98.576 50.5687C98.0803 50.9542 97.5846 51.3123 97.0338 51.6427C96.5105 51.9732 95.9598 52.3037 95.409 52.5791C94.8307 52.8545 94.2523 53.1023 93.674 53.3502C93.0957 53.5705 92.4898 53.7633 91.8839 53.9285C91.2781 54.0937 90.6447 54.2314 90.0388 54.3416C89.4054 54.4518 88.772 54.5068 88.1661 54.5619C87.7255 54.5895 87.2849 54.6169 86.8442 54.6169C86.2108 54.6169 85.5774 54.5619 84.9716 54.5067C84.3382 54.4517 83.7048 54.369 83.0989 54.2313C82.4655 54.1211 81.8596 53.9559 81.2538 53.7632H81.2262C81.832 53.7081 82.4379 53.653 83.0438 53.5429C83.6772 53.4327 84.283 53.295 84.8889 53.1298C85.4948 52.9645 86.1006 52.7717 86.679 52.5514C87.2848 52.3311 87.8632 52.0557 88.414 51.7803C88.9923 51.5049 89.5155 51.202 90.0663 50.8715C90.5896 50.5135 91.1128 50.1555 91.6085 49.77C92.1042 49.3844 92.5724 48.9713 93.013 48.5307C93.4812 48.1176 93.8943 47.6494 94.3074 47.1813C94.7204 46.6856 95.106 46.1899 95.464 45.6941C95.5191 45.6115 95.5742 45.5014 95.6293 45.4188C95.9046 44.9781 96.18 44.5375 96.4279 44.0969C96.7308 43.5461 97.0062 42.9953 97.2541 42.417C97.5019 41.8386 97.7222 41.2603 97.915 40.6544C98.1078 40.0761 98.2455 39.4703 98.3832 38.8644C98.4934 38.231 98.6035 37.6251 98.6586 37.0193C98.7136 36.3859 98.7688 35.7524 98.7688 35.1466C98.7688 34.706 98.7412 34.2653 98.7137 33.8247C98.6587 33.1913 98.576 32.5854 98.4934 31.9796C98.3832 31.3462 98.2456 30.7403 98.0803 30.1344C97.8876 29.5561 97.6948 28.9502 97.4745 28.3719C97.2541 27.7936 96.9788 27.2153 96.7034 26.6645C96.4004 26.1137 96.0975 25.5629 95.767 25.0397C95.409 24.5164 95.051 24.0207 94.6655 23.525C94.2524 23.0568 93.8393 22.5886 93.3986 22.1205C93.1783 21.9002 92.9305 21.6523 92.6826 21.432C91.4434 20.4681 90.149 19.5593 88.8547 18.7331C88.6619 18.6229 88.4967 18.5404 88.3039 18.4577C87.3951 17.8794 86.5413 17.5763 85.6876 17.3009Z" fill="#E0234E"/>
</svg>
